<?xml version="1.0" encoding="UTF-8" standalone="no"?>
<!DOCTYPE svg PUBLIC "-//W3C//DTD SVG 1.1//EN" "http://www.w3.org/Graphics/SVG/1.1/DTD/svg11.dtd">
<svg width="100%" height="100%" viewBox="0 0 512 512" version="1.1" xmlns="http://www.w3.org/2000/svg" xmlns:xlink="http://www.w3.org/1999/xlink" xml:space="preserve" xmlns:serif="http://www.serif.com/" style="fill-rule:evenodd;clip-rule:evenodd;stroke-linecap:round;stroke-linejoin:round;stroke-miterlimit:1.5;">
    <path d="M480,54.725L480,457.275C480,469.817 469.817,480 457.275,480L54.725,480C42.183,480 32,469.817 32,457.275L32,54.725C32,42.183 42.183,32 54.725,32L457.275,32C469.817,32 480,42.183 480,54.725Z" style="fill:rgb(0,80,127);"/>
    <path d="M512,51.2L512,460.8C512,489.058 489.058,512 460.8,512L51.2,512C22.942,512 0,489.058 0,460.8L0,51.2C0,22.942 22.942,0 51.2,0L460.8,0C489.058,0 512,22.942 512,51.2Z" style="fill:white;fill-opacity:1;stroke:rgb(0,80,127);stroke-width:4.17px;"/>
    <g transform="matrix(0.893763,0,0,0.893763,150.089364,29.48288)">
        <path d="M3.011,315.5C3.011,230.541 2.945,230.461 3.483,229.488C4.347,227.924 62.513,194.776 67.686,191.828C166.511,135.509 165.821,134.332 174.581,129.742C176.931,128.511 176.303,134.606 176.303,147.5C176.297,280.392 176.443,280.831 175.454,281.294C174.483,281.748 147.983,266.601 145.631,265.257C142.656,263.557 143.148,262.684 143.148,227.5C143.148,186.6 144.888,183.881 141.527,184.594C139.958,184.927 113.231,201.47 110.795,202.978C106.631,205.555 107.587,207.174 107.594,213.5C107.665,274.789 107.186,275.114 108.501,276.499C110.9,279.027 111.31,278.479 145.771,299.053C212.39,338.827 212.695,339.834 213.763,338.866C214.756,337.966 214.238,122.129 214.029,121.675C213.709,120.982 213.854,120.684 122.729,66.114C110.504,58.793 107.535,55.754 107.58,60.502C107.628,65.621 107.901,94.836 107.596,124.503C107.554,128.631 95.42,132.97 77.431,143.378C72.637,146.151 74.082,140.356 74.092,137.5C74.519,15.047 73.711,15.053 74.078,4.412C74.159,2.082 75.258,2.673 77.305,3.853C132.33,35.803 187.356,67.753 242.382,99.703C248.136,103.043 247.682,103.923 247.668,110.5C247.099,369.994 248.102,369.971 247.702,392.529C247.657,395.033 246.436,394.261 244.224,392.992C182.887,357.796 178.004,353.809 176.759,354.78C175.321,355.901 177.429,401.657 175.61,404.593C175.029,405.531 57.433,473.376 18.756,495.93C5.131,503.876 2.88,505.877 2.905,502.483C3.063,480.882 3.011,480.898 3.011,315.5M74.092,265.5C74.092,226.69 74.163,226.579 73.753,226.219C72.672,225.272 36.954,246.817 36.457,248.487C36.046,249.871 36.307,448.572 36.312,448.589C37.053,451.025 38.368,448.763 121.731,398.899C141.291,387.199 143.137,387.662 143.15,381.496C143.241,338.039 144.34,337.773 142.584,334.443C141.89,333.127 79.015,297.369 75.684,295.213C73.71,293.934 74.092,293.339 74.092,265.5" style="fill:rgb(149,193,30);fill-opacity:1;stroke:rgb(0,80,127);stroke-width:4.66px;stroke-linecap:butt;stroke-miterlimit:2;"/>
        <g transform="matrix(0.626478,-0.349925,0.349925,0.626478,-314.730128,14.617148)">
            <path d="M249.564,449.691L243.514,432.591L249.314,432.591L253.014,443.891L253.114,443.891L256.914,432.591L262.114,432.591L256.064,449.691L262.414,467.591L256.614,467.591L252.614,455.391L252.514,455.391L248.414,467.591L243.214,467.591L249.564,449.691Z" style="fill:rgb(0,80,127);"/>
            <path d="M265.014,432.591L273.164,432.591C275.997,432.591 278.064,433.25 279.364,434.566C280.664,435.883 281.314,437.908 281.314,440.641L281.314,442.791C281.314,446.425 280.114,448.725 277.714,449.691L277.714,449.791C279.047,450.191 279.989,451.008 280.539,452.241C281.089,453.475 281.364,455.125 281.364,457.191L281.364,463.341C281.364,464.341 281.397,465.15 281.464,465.766C281.53,466.383 281.697,466.991 281.964,467.591L276.364,467.591C276.164,467.025 276.03,466.491 275.964,465.991C275.897,465.491 275.864,464.591 275.864,463.291L275.864,456.891C275.864,455.291 275.605,454.175 275.089,453.541C274.572,452.908 273.68,452.591 272.414,452.591L270.514,452.591L270.514,467.591L265.014,467.591L265.014,432.591ZM272.514,447.591C273.614,447.591 274.439,447.308 274.989,446.741C275.539,446.175 275.814,445.225 275.814,443.891L275.814,441.191C275.814,439.925 275.589,439.008 275.139,438.441C274.689,437.875 273.98,437.591 273.014,437.591L270.514,437.591L270.514,447.591L272.514,447.591Z" style="fill:rgb(0,80,127);"/>
            <path d="M300.314,468.091C297.647,468.091 295.63,467.333 294.264,465.816C292.897,464.3 292.214,462.125 292.214,459.291L292.214,457.291L297.414,457.291L297.414,459.691C297.414,461.958 298.364,463.091 300.264,463.091C301.197,463.091 301.905,462.816 302.389,462.266C302.872,461.716 303.114,460.825 303.114,459.591C303.114,458.125 302.78,456.833 302.114,455.716C301.447,454.6 300.214,453.258 298.414,451.691C296.147,449.691 294.564,447.883 293.664,446.266C292.764,444.65 292.314,442.825 292.314,440.791C292.314,438.025 293.014,435.883 294.414,434.366C295.814,432.85 297.847,432.091 300.514,432.091C303.147,432.091 305.139,432.85 306.489,434.366C307.839,435.883 308.514,438.058 308.514,440.891L308.514,442.341L303.314,442.341L303.314,440.541C303.314,439.341 303.08,438.466 302.614,437.916C302.147,437.366 301.464,437.091 300.564,437.091C298.73,437.091 297.814,438.208 297.814,440.441C297.814,441.708 298.155,442.891 298.839,443.991C299.522,445.091 300.764,446.425 302.564,447.991C304.864,449.991 306.447,451.808 307.314,453.441C308.18,455.075 308.614,456.991 308.614,459.191C308.614,462.058 307.905,464.258 306.489,465.791C305.072,467.325 303.014,468.091 300.314,468.091Z" style="fill:rgb(0,80,127);"/>
            <path d="M316.064,437.591L310.314,437.591L310.314,432.591L327.314,432.591L327.314,437.591L321.564,437.591L321.564,467.591L316.064,467.591L316.064,437.591Z" style="fill:rgb(0,80,127);"/>
            <path d="M337.964,468.091C335.297,468.091 333.264,467.333 331.864,465.816C330.464,464.3 329.764,462.125 329.764,459.291L329.764,432.591L335.264,432.591L335.264,459.691C335.264,460.891 335.505,461.758 335.989,462.291C336.472,462.825 337.164,463.091 338.064,463.091C338.964,463.091 339.655,462.825 340.139,462.291C340.622,461.758 340.864,460.891 340.864,459.691L340.864,432.591L346.164,432.591L346.164,459.291C346.164,462.125 345.464,464.3 344.064,465.816C342.664,467.333 340.63,468.091 337.964,468.091Z" style="fill:rgb(0,80,127);"/>
            <path d="M350.064,432.591L358.464,432.591C361.197,432.591 363.247,433.325 364.614,434.791C365.98,436.258 366.664,438.408 366.664,441.241L366.664,458.941C366.664,461.775 365.98,463.925 364.614,465.391C363.247,466.858 361.197,467.591 358.464,467.591L350.064,467.591L350.064,432.591ZM358.364,462.591C359.264,462.591 359.955,462.325 360.439,461.791C360.922,461.258 361.164,460.391 361.164,459.191L361.164,440.991C361.164,439.791 360.922,438.925 360.439,438.391C359.955,437.858 359.264,437.591 358.364,437.591L355.564,437.591L355.564,462.591L358.364,462.591Z" style="fill:rgb(0,80,127);"/>
            <rect x="370.364" y="432.591" width="5.5" height="35" style="fill:rgb(0,80,127);"/>
            <path d="M387.914,468.091C385.214,468.091 383.147,467.325 381.714,465.791C380.28,464.258 379.564,462.091 379.564,459.291L379.564,440.891C379.564,438.091 380.28,435.925 381.714,434.391C383.147,432.858 385.214,432.091 387.914,432.091C390.614,432.091 392.68,432.858 394.114,434.391C395.547,435.925 396.264,438.091 396.264,440.891L396.264,459.291C396.264,462.091 395.547,464.258 394.114,465.791C392.68,467.325 390.614,468.091 387.914,468.091ZM387.914,463.091C389.814,463.091 390.764,461.941 390.764,459.641L390.764,440.541C390.764,438.241 389.814,437.091 387.914,437.091C386.014,437.091 385.064,438.241 385.064,440.541L385.064,459.641C385.064,461.941 386.014,463.091 387.914,463.091Z" style="fill:rgb(0,80,127);"/>
        </g>
        <g transform="matrix(0.970267,-0.564969,0.564969,0.970267,-445.510356,115.02986)">
            <path d="M244.03,444.258L249.43,444.258C251.253,444.258 252.619,444.747 253.53,445.725C254.442,446.702 254.897,448.136 254.897,450.025L254.897,452.325C254.897,454.213 254.442,455.647 253.53,456.625C252.619,457.602 251.253,458.091 249.43,458.091L247.697,458.091L247.697,467.591L244.03,467.591L244.03,444.258ZM249.43,454.758C250.03,454.758 250.48,454.591 250.78,454.258C251.08,453.925 251.23,453.358 251.23,452.558L251.23,449.791C251.23,448.991 251.08,448.425 250.78,448.091C250.48,447.758 250.03,447.591 249.43,447.591L247.697,447.591L247.697,454.758L249.43,454.758Z" style="fill:rgb(0,80,127);"/>
            <path d="M262.197,467.925C260.397,467.925 259.019,467.413 258.064,466.391C257.108,465.369 256.63,463.925 256.63,462.058L256.63,449.791C256.63,447.925 257.108,446.48 258.064,445.458C259.019,444.436 260.397,443.925 262.197,443.925C263.997,443.925 265.375,444.436 266.33,445.458C267.286,446.48 267.764,447.925 267.764,449.791L267.764,462.058C267.764,463.925 267.286,465.369 266.33,466.391C265.375,467.413 263.997,467.925 262.197,467.925ZM262.197,464.591C263.464,464.591 264.097,463.825 264.097,462.291L264.097,449.558C264.097,448.025 263.464,447.258 262.197,447.258C260.93,447.258 260.297,448.025 260.297,449.558L260.297,462.291C260.297,463.825 260.93,464.591 262.197,464.591Z" style="fill:rgb(0,80,127);"/>
            <path d="M270.23,444.258L275.664,444.258C277.553,444.258 278.93,444.697 279.797,445.575C280.664,446.452 281.097,447.802 281.097,449.625L281.097,451.058C281.097,453.48 280.297,455.013 278.697,455.658L278.697,455.725C279.586,455.991 280.214,456.536 280.58,457.358C280.947,458.18 281.13,459.28 281.13,460.658L281.13,464.758C281.13,465.425 281.153,465.963 281.197,466.375C281.242,466.786 281.353,467.191 281.53,467.591L277.797,467.591C277.664,467.213 277.575,466.858 277.53,466.525C277.486,466.191 277.464,465.591 277.464,464.725L277.464,460.458C277.464,459.391 277.292,458.647 276.947,458.225C276.603,457.802 276.008,457.591 275.164,457.591L273.897,457.591L273.897,467.591L270.23,467.591L270.23,444.258ZM275.23,454.258C275.964,454.258 276.514,454.069 276.88,453.691C277.247,453.313 277.43,452.68 277.43,451.791L277.43,449.991C277.43,449.147 277.28,448.536 276.98,448.158C276.68,447.78 276.208,447.591 275.564,447.591L273.897,447.591L273.897,454.258L275.23,454.258Z" style="fill:rgb(0,80,127);"/>
            <path d="M286.464,447.591L282.63,447.591L282.63,444.258L293.964,444.258L293.964,447.591L290.13,447.591L290.13,467.591L286.464,467.591L286.464,447.591Z" style="fill:rgb(0,80,127);"/>
            <path d="M297.03,444.258L301.997,444.258L305.797,467.591L302.13,467.591L301.464,462.958L301.464,463.025L297.297,463.025L296.63,467.591L293.23,467.591L297.03,444.258ZM301.03,459.858L299.397,448.325L299.33,448.325L297.73,459.858L301.03,459.858Z" style="fill:rgb(0,80,127);"/>
            <path d="M307.564,444.258L311.23,444.258L311.23,464.258L317.264,464.258L317.264,467.591L307.564,467.591L307.564,444.258Z" style="fill:rgb(0,80,127);"/>
        </g>
    </g>
</svg>
