<?xml version="1.0" encoding="UTF-8" standalone="no"?>
<!DOCTYPE svg PUBLIC "-//W3C//DTD SVG 1.1//EN" "http://www.w3.org/Graphics/SVG/1.1/DTD/svg11.dtd">
<svg width="100%" height="100%" viewBox="0 0 512 512" version="1.1" xmlns="http://www.w3.org/2000/svg" xmlns:xlink="http://www.w3.org/1999/xlink" xml:space="preserve" xmlns:serif="http://www.serif.com/" style="fill-rule:evenodd;clip-rule:evenodd;stroke-linecap:round;stroke-linejoin:round;stroke-miterlimit:1.5;">
    <path d="M512,51.2L512,460.8C512,489.058 489.058,512 460.8,512L51.2,512C22.942,512 0,489.058 0,460.8L0,51.2C0,22.942 22.942,0 51.2,0L460.8,0C489.058,0 512,22.942 512,51.2Z" style="fill:white;fill-opacity:1;stroke:rgb(0,80,127);stroke-width:4.17px;"/>
    <g transform="matrix(1,0,0,1,122,27)">
        <path d="M98.514,58.462C97.895,58.518 98.104,57.887 97.487,57.943C97.405,57.95 97.096,57.978 96.72,58.624C96.569,58.884 96.724,59.254 96.573,59.513C96.804,68.087 96.677,107.341 96.664,111.5C96.654,114.618 96.466,114.661 95.538,116.525C95.151,117.302 95.009,117.179 94.594,117.594C94.436,117.752 94.408,118.022 94.23,118.156C93.796,118.485 93.256,118.649 92.802,118.949C92.643,119.054 92.563,119.253 92.406,119.363C92.177,119.524 91.888,119.587 91.661,119.75C91.511,119.858 91.445,120.061 91.292,120.164C91.055,120.324 90.772,120.401 90.514,120.524C89.882,120.826 89.948,120.89 89.369,121.276C89.129,121.436 88.84,121.512 88.597,121.668C87.648,122.277 87.608,122.173 86.636,122.752C85.673,123.326 85.656,123.254 84.68,123.818C84.532,123.903 84.471,124.1 84.32,124.18C82.557,125.121 82.509,124.989 80.728,125.924C80.584,125.999 80.516,126.183 80.373,126.259C79.383,126.786 79.362,126.716 78.394,127.3C75.135,129.266 74.977,128.933 71.69,130.835C71.543,130.92 71.478,131.113 71.328,131.193C70.808,131.469 70.227,131.616 69.707,131.89C69.564,131.966 69.5,132.147 69.36,132.229C69.102,132.378 68.813,132.465 68.534,132.571C66.184,133.472 65.393,133.659 64.28,132.907C62.431,131.657 62.153,130.694 62.194,127.494C62.322,117.571 62.241,27.22 62.233,18.5C62.222,6.269 61.83,4.072 64.379,3.182C64.566,3.117 65.221,2.138 70.238,4.946C70.448,5.064 71.312,5.612 71.405,5.67C74.535,7.657 74.646,7.45 75.309,7.825C75.463,7.912 75.522,8.119 75.674,8.21C76.634,8.784 76.653,8.717 77.605,9.316C78.683,9.994 78.662,9.997 78.758,10.05C79.264,10.331 79.83,10.497 80.334,10.782C80.487,10.868 80.559,11.061 80.709,11.152C82.002,11.929 84.27,13.182 84.582,13.354C84.955,13.56 87.478,14.954 89.23,15.957C89.429,16.072 90.303,16.627 90.396,16.686C91.341,17.287 91.368,17.209 92.353,17.765C92.501,17.848 92.564,18.046 92.713,18.128C93.221,18.408 93.796,18.553 94.3,18.838C94.455,18.926 94.51,19.139 94.662,19.23C95.156,19.525 95.716,19.696 96.215,19.982C96.365,20.067 96.449,20.241 96.595,20.334C97.669,21.013 97.652,21.016 97.748,21.069C98.254,21.35 98.821,21.511 99.325,21.797C99.478,21.883 99.546,22.081 99.697,22.171C100.19,22.467 100.739,22.659 101.237,22.945C102.745,23.811 102.648,23.939 102.78,24.012C104.213,24.802 104.312,24.615 108.605,27.316C109.683,27.994 109.662,27.997 109.758,28.05C110.264,28.331 110.83,28.497 111.334,28.782C111.487,28.868 111.559,29.061 111.709,29.152C112.962,29.905 115.271,31.18 115.583,31.353C118.082,32.733 118.101,32.689 118.317,32.811C118.47,32.898 118.534,33.1 118.685,33.191C119.178,33.486 119.731,33.672 120.23,33.957C120.429,34.072 121.303,34.627 121.396,34.686C122.341,35.287 122.368,35.209 123.353,35.765C123.501,35.848 123.564,36.046 123.713,36.128C124.221,36.408 124.796,36.553 125.3,36.838C125.455,36.926 125.51,37.139 125.662,37.23C126.156,37.525 126.716,37.696 127.215,37.982C127.365,38.067 127.449,38.241 127.595,38.333C128.669,39.012 128.652,39.015 128.748,39.068C129.254,39.348 129.822,39.51 130.326,39.795C130.479,39.882 130.547,40.079 130.698,40.17C131.191,40.466 131.739,40.658 132.237,40.945C132.497,41.094 133.312,41.612 133.405,41.67C134.355,42.274 134.383,42.197 135.361,42.749C135.51,42.833 135.576,43.025 135.725,43.108C136.232,43.388 136.804,43.539 137.309,43.825C137.463,43.912 137.522,44.119 137.674,44.21C138.634,44.784 138.653,44.717 139.605,45.316C140.683,45.994 140.662,45.997 140.758,46.05C141.264,46.331 141.83,46.497 142.334,46.782C142.487,46.868 142.559,47.061 142.709,47.152C143.962,47.905 146.271,49.18 146.583,49.353C147.052,49.612 150.924,51.75 152.396,52.686C153.341,53.287 153.368,53.209 154.353,53.765C154.501,53.848 154.564,54.046 154.713,54.128C155.221,54.408 155.796,54.553 156.3,54.838C156.455,54.926 156.51,55.139 156.662,55.23C157.156,55.525 157.716,55.696 158.215,55.982C158.298,56.029 159.286,56.658 159.379,56.717C161.92,58.335 161.978,58.22 163.237,58.945C163.497,59.094 164.312,59.612 164.405,59.67C167.56,61.673 167.656,61.455 168.309,61.825C168.463,61.912 168.522,62.119 168.674,62.21C169.634,62.784 169.653,62.717 170.605,63.316C171.683,63.994 171.662,63.997 171.758,64.05C172.264,64.331 172.83,64.497 173.334,64.782C173.487,64.868 173.559,65.061 173.709,65.152C174.201,65.448 174.748,65.645 175.245,65.932C175.496,66.075 178.296,67.686 178.37,67.733C178.513,67.825 178.587,68.006 178.736,68.089C179.243,68.369 179.812,68.526 180.317,68.811C180.47,68.898 180.534,69.1 180.685,69.191C181.178,69.486 181.731,69.672 182.23,69.957C182.429,70.072 183.303,70.627 183.396,70.686C186.484,72.65 186.591,72.437 187.3,72.838C187.455,72.926 187.51,73.139 187.662,73.23C188.156,73.525 188.716,73.696 189.215,73.982C189.298,74.029 190.286,74.658 190.379,74.717C192.92,76.335 192.978,76.22 194.237,76.945C194.497,77.094 195.312,77.612 195.405,77.67C198.56,79.673 198.656,79.455 199.309,79.825C199.463,79.912 199.522,80.119 199.674,80.21C200.634,80.784 200.653,80.717 201.605,81.316C202.683,81.994 202.662,81.997 202.758,82.05C203.264,82.331 203.83,82.497 204.334,82.782C204.487,82.868 204.559,83.061 204.709,83.152C204.921,83.279 204.929,83.258 207.414,84.653C209.445,85.793 215.25,89.252 215.558,89.4C216.2,89.709 216.14,89.77 216.711,90.18C217.576,90.802 219.736,91.827 220.536,93.478C221.239,94.929 221.388,94.872 221.639,96.481C222.016,98.893 221.711,247.823 221.79,309.5C221.793,311.942 221.817,311.93 221.959,314.364C221.483,314.506 221.511,315.074 219.504,315.096C217.597,315.118 217.767,314.545 217.202,314.365C217.298,313.715 217.468,313.752 217.475,312.5C217.601,291.371 217.521,119.3 217.513,102.5C217.511,96.839 217.771,96.079 214.338,93.75C212.712,92.647 76.944,14.024 70.229,9.967C70.022,9.842 68.137,8.704 67.509,8.655C66.519,8.579 66.516,10.333 66.516,10.501C66.501,19.461 66.708,19.45 66.575,122.5C66.571,125.951 66.437,127.075 66.658,127.414C67.348,128.474 69.181,127.356 69.366,127.242C74.454,124.138 90.861,116.492 91.912,113.678C92.361,112.474 92.26,112.426 92.262,60.5C92.262,60.028 92.262,55.91 92.844,54.634C94.984,49.939 101.22,55.215 107.758,59.071C117.803,64.994 132.807,74.155 136.574,76.377C137.958,77.193 171.349,97.319 171.545,97.426C172.761,98.094 188.884,107.906 190.096,108.963C191.95,110.579 191.666,111.245 191.717,126.499C191.864,169.711 192.264,302.234 191.194,305.417C189.782,309.618 185.08,305.976 181.307,303.84C176.738,301.253 109.814,260.942 106.338,258.767C94.569,251.402 93.777,251.902 93.242,249.557C92.817,247.689 93.703,229.412 93.965,195.506C93.987,192.626 94.399,191.833 93.769,191.255C92.799,190.365 92.633,190.851 91.532,191.554C82.752,197.154 68.528,205.582 67.611,206.595C66.699,207.602 66.932,207.826 67.143,250.502C67.213,264.787 67.093,264.966 68.019,265.924C69.18,267.124 92.955,280.39 95.322,281.813C96.861,282.739 96.878,282.66 114.767,293.032C118.688,295.306 122.991,297.73 123.708,298.135C130.6,302.018 165.847,322.288 166.441,322.601C167.486,323.152 167.411,323.244 179.264,329.913C179.409,329.995 179.529,330.115 179.671,330.2C180.812,330.885 180.855,330.746 182.438,331.237C182.025,331.945 182.2,332.187 180.801,333.746C179.97,334.673 179.941,334.618 179.074,335.498C178.801,335.237 178.738,334.804 178.465,334.542C178.265,334.351 177.944,334.344 177.713,334.193C177.556,334.091 177.48,333.89 177.319,333.795C175.982,333 175.918,333.14 174.603,332.313C173.656,331.717 173.63,331.794 172.642,331.242C172.494,331.159 172.431,330.965 172.282,330.884C171.773,330.605 171.198,330.456 170.691,330.172C170.538,330.087 170.479,329.88 170.328,329.79C169.832,329.496 169.275,329.317 168.774,329.033C168.635,328.954 167.7,328.365 167.607,328.306C166.661,327.709 166.634,327.787 165.646,327.235C165.498,327.153 165.434,326.96 165.287,326.875C164.77,326.578 164.185,326.409 163.674,326.1C163.54,326.019 163.512,325.821 163.386,325.727C163.386,325.727 161.564,324.735 161.405,324.649C161.257,324.551 160.032,323.743 159.532,323.442C158.639,322.904 158.646,322.528 157.701,322.943C156.856,323.313 157.007,323.509 157.046,324.415C157.059,324.722 157.052,327.249 157.051,327.496C157.044,330.216 156.987,352.303 156.792,361.506C156.722,364.843 155.132,364.779 151.693,366.839C146.503,369.949 140.243,373.481 139.241,374.046C118.759,385.603 113.718,388.694 111.26,390.08C99.517,396.701 29.653,436.855 24.615,439.702C7.983,449.099 7.822,449.846 6.862,449.069C6.189,448.524 6.431,446.658 6.435,446.501C6.59,440.045 6.468,284.057 6.475,217.5C6.476,212.051 5.862,210.044 10.474,207.458C18.699,202.845 18.546,202.61 26.752,197.936C42.351,189.049 49.773,184.551 52.717,182.875C61.599,177.816 79.458,167.34 81.778,165.979C86.975,162.931 87.03,163.063 92.222,160.019C94.422,158.729 116.264,145.923 119.752,143.936C134.946,135.279 143.101,130.364 145.716,128.873C154.683,123.762 154.591,123.618 155.405,123.243C156.495,122.739 156.757,122.54 157.37,123.56C157.564,123.881 157.455,123.903 157.431,127.5C157.371,136.54 157.54,136.529 157.511,240.501C157.51,241.667 157.603,241.9 156.495,242.275C155.789,242.514 155.848,242.142 154.547,241.409C148.876,238.215 133.547,230.456 132.42,228.559C131.579,227.144 131.725,227.027 131.726,204.5C131.726,170.646 131.846,170.579 131.089,168.675C130.371,166.87 127.899,166.476 125.588,167.679C124.14,168.432 106.671,179.009 106.334,179.224C99.019,183.891 98.148,183.464 98.111,185.504C98.07,187.717 98.894,188.544 98.935,188.775C98.985,189.048 98.595,189.281 98.644,189.554C98.405,191.536 98.408,191.52 98.377,193.498C98.078,212.83 97.926,212.824 97.914,214.505C97.773,234.463 97.522,245.664 97.544,246.498C97.613,249.135 99.468,249.424 101.394,250.685C102.335,251.302 102.363,251.224 103.327,251.786C103.482,251.877 103.552,252.076 103.705,252.17C104.191,252.468 104.735,252.662 105.225,252.953C106.741,253.852 106.632,253.982 106.764,254.057C107.263,254.341 107.823,254.508 108.319,254.798C108.475,254.889 108.542,255.091 108.695,255.186C109.643,255.767 109.659,255.707 110.607,256.318C111.687,257.014 111.659,257.018 111.754,257.072C112.254,257.356 112.817,257.519 113.313,257.809C113.469,257.9 113.532,258.106 113.686,258.201C114.645,258.788 114.663,258.728 115.598,259.334C116.674,260.03 116.649,260.034 116.745,260.089C117.245,260.372 117.81,260.531 118.306,260.821C118.462,260.912 118.522,261.122 118.676,261.217C119.163,261.514 119.717,261.692 120.208,261.982C120.36,262.072 120.442,262.251 120.59,262.347C120.832,262.505 121.124,262.575 121.365,262.734C121.511,262.83 121.585,263.017 121.737,263.103C122.237,263.386 122.804,263.541 123.3,263.831C123.456,263.922 123.513,264.137 123.667,264.231C124.155,264.528 124.71,264.701 125.201,264.991C125.354,265.081 125.433,265.265 125.581,265.363C126.449,265.937 140.637,274.373 143.636,276.267C143.877,276.419 149.496,279.653 153.634,282.27C156.469,284.064 156.586,283.835 159.404,285.668C160.345,286.281 160.371,286.207 161.338,286.768C161.493,286.858 161.568,287.051 161.72,287.144C162.667,287.725 162.675,287.668 163.632,288.274C166.471,290.072 166.589,289.844 169.402,291.672C170.345,292.284 170.371,292.209 171.337,292.77C171.492,292.86 171.566,293.053 171.719,293.146C172.205,293.445 172.746,293.646 173.236,293.936C173.568,294.132 174.308,294.614 174.401,294.674C175.335,295.282 175.362,295.207 176.336,295.772C176.491,295.861 176.565,296.055 176.717,296.149C177.203,296.447 177.745,296.647 178.236,296.937C178.574,297.136 179.308,297.615 179.4,297.675C180.25,298.229 180.25,298.202 183.249,299.929C185.663,301.319 185.678,301.764 186.439,301.333C187.397,300.79 187.205,300.598 187.205,299.482C187.205,297.883 187.206,294.188 187.409,279.499C187.756,254.39 187.313,117.82 187.298,115.501C187.273,111.703 186.559,111.785 183.375,109.706C180.564,107.871 180.441,108.095 177.655,106.245C177.506,106.146 177.422,105.964 177.27,105.869C174.851,104.376 174.8,104.472 174.593,104.338C173.658,103.729 173.632,103.803 172.659,103.237C172.504,103.147 172.428,102.955 172.276,102.862C171.79,102.563 171.251,102.36 170.761,102.069C170.398,101.854 169.689,101.392 169.596,101.332C168.662,100.723 168.636,100.798 167.662,100.232C167.507,100.142 167.432,99.949 167.28,99.856C166.794,99.558 166.253,99.356 165.763,99.066C165.411,98.858 164.691,98.388 164.599,98.328C163.664,97.717 163.637,97.793 162.664,97.227C162.51,97.138 162.436,96.943 162.283,96.85C161.798,96.551 161.256,96.351 160.765,96.061C160.437,95.867 159.694,95.382 159.602,95.322C158.663,94.71 158.636,94.786 157.667,94.223C157.512,94.133 157.439,93.938 157.287,93.844C156.801,93.546 156.259,93.348 155.768,93.057C155.454,92.871 154.697,92.377 154.605,92.317C153.673,91.709 153.646,91.785 152.67,91.218C152.515,91.128 152.444,90.932 152.291,90.838C151.805,90.54 151.261,90.344 150.77,90.054C150.481,89.882 149.7,89.373 149.608,89.312C147.464,87.912 118.549,70.698 115.402,68.668C114.325,67.973 114.349,67.97 114.254,67.916C113.753,67.632 113.188,67.472 112.691,67.183C112.536,67.092 112.474,66.884 112.321,66.79C111.833,66.493 111.28,66.313 110.788,66.023C110.637,65.934 110.552,65.758 110.405,65.663C109.328,64.968 109.352,64.964 109.257,64.91C108.756,64.627 108.191,64.468 107.694,64.179C107.538,64.088 107.478,63.878 107.324,63.784C106.836,63.487 106.283,63.309 105.791,63.019C105.639,62.93 105.556,62.751 105.409,62.655C105.166,62.498 104.875,62.427 104.633,62.268C104.488,62.173 104.413,61.988 104.262,61.902C103.761,61.619 103.194,61.463 102.697,61.174C102.541,61.083 102.483,60.871 102.328,60.777C101.84,60.48 101.285,60.304 100.793,60.014C100.642,59.925 100.56,59.745 100.413,59.648C100.171,59.487 99.877,59.413 99.637,59.249C99.496,59.153 99.425,58.975 99.285,58.878C99.046,58.71 98.753,58.63 98.514,58.462L62.449,210.479C62.143,210.76 62.069,210.631 61.754,210.921C61.544,211.114 61.688,211.209 61.46,211.389C61.222,211.576 60.902,211.631 60.647,211.795C58.935,212.897 58.943,212.867 58.802,212.97C58.651,213.08 58.591,213.291 58.437,213.395C58.196,213.558 57.89,213.603 57.643,213.756C57.501,213.844 57.433,214.027 57.287,214.108C56.47,214.558 56.412,214.419 55.299,215.169C54.59,215.646 54.506,215.474 53.806,215.976C53.654,216.085 53.593,216.294 53.439,216.398C53.198,216.561 52.892,216.607 52.645,216.76C52.503,216.847 52.434,217.029 52.288,217.109C51.505,217.54 51.443,217.401 50.3,218.17C49.591,218.648 49.508,218.478 48.809,218.98C48.657,219.088 48.594,219.296 48.44,219.401C48.2,219.563 47.896,219.609 47.651,219.764C47.503,219.858 47.423,220.036 47.278,220.136C46.564,220.626 46.445,220.385 45.761,220.899C45.606,221.015 45.576,221.256 45.418,221.367C45.181,221.534 44.861,221.549 44.616,221.705C44.472,221.797 44.424,222.002 44.279,222.094C43.314,222.705 43.227,222.508 42.287,223.154C41.191,223.909 41.253,223.986 41.155,224.047C40.684,224.34 40.129,224.477 39.649,224.754C39.495,224.844 39.419,225.033 39.274,225.137C39.045,225.3 38.752,225.366 38.538,225.548C38.359,225.702 38.29,225.955 38.123,226.121C37.967,226.276 37.502,226.371 37.148,227.352C36.434,229.334 36.806,229.383 36.803,231.501C36.821,286.499 36.84,341.496 36.858,396.494C36.855,397.707 36.377,397.879 37.245,398.731C38.598,400.059 39.251,398.806 39.551,398.601C39.795,398.434 40.108,398.393 40.361,398.239C40.5,398.154 40.566,397.973 40.709,397.895C41.685,397.367 41.734,397.492 42.705,396.84C43.811,396.097 43.743,396.014 43.842,395.954C44.319,395.664 44.878,395.53 45.364,395.256C45.51,395.174 45.568,394.978 45.715,394.897C46.713,394.348 46.762,394.475 47.705,393.839C48.809,393.096 48.743,393.014 48.842,392.954C49.318,392.663 49.877,392.529 50.363,392.255C50.509,392.172 50.568,391.977 50.715,391.897C51.696,391.356 51.745,391.485 52.705,390.839C53.809,390.096 53.743,390.013 53.841,389.953C54.318,389.663 54.877,389.528 55.363,389.253C55.508,389.171 55.568,388.977 55.714,388.896C56.684,388.363 56.734,388.491 57.705,387.838C58.808,387.095 58.742,387.013 58.841,386.953C59.318,386.663 59.876,386.527 60.362,386.253C60.508,386.171 60.568,385.976 60.714,385.896C61.656,385.377 61.711,385.506 62.704,384.837C63.807,384.094 63.742,384.013 63.841,383.953C64.317,383.662 64.875,383.525 65.361,383.25C65.506,383.168 65.567,382.976 65.714,382.895C66.65,382.38 66.705,382.509 67.704,381.837C68.808,381.094 68.742,381.013 68.841,380.953C69.317,380.662 69.875,380.525 70.361,380.25C70.506,380.168 70.567,379.975 70.714,379.895C71.636,379.387 71.692,379.516 72.703,378.836C73.807,378.094 73.742,378.013 73.84,377.953C74.317,377.662 74.874,377.523 75.36,377.249C75.505,377.167 75.567,376.975 75.713,376.894C76.615,376.398 76.674,376.528 77.703,375.835C78.806,375.093 78.742,375.012 78.84,374.953C79.317,374.662 79.873,374.522 80.359,374.247C80.504,374.165 80.567,373.974 80.713,373.894C81.606,373.402 81.665,373.532 82.702,372.834C83.805,372.093 83.741,372.012 83.84,371.952C84.317,371.662 84.873,371.521 85.359,371.247C85.504,371.165 85.567,370.974 85.713,370.894C86.577,370.418 86.629,370.557 87.702,369.834C88.804,369.092 88.741,369.012 88.839,368.952C89.316,368.661 89.872,368.519 90.358,368.244C90.503,368.162 90.567,367.973 90.713,367.893C91.572,367.42 91.623,367.559 92.702,366.833C93.805,366.092 93.741,366.012 93.839,365.952C94.316,365.661 94.87,365.517 95.356,365.242C95.501,365.16 95.566,364.972 95.713,364.891C96.477,364.468 96.542,364.609 97.7,363.829C98.8,363.087 98.739,363.01 98.837,362.95C99.312,362.659 99.864,362.51 100.346,362.232C100.498,362.144 100.576,361.961 100.721,361.862C100.955,361.702 101.251,361.638 101.472,361.46C101.636,361.329 101.669,361.064 101.848,360.956C102.326,360.667 102.902,360.573 103.389,360.3C103.538,360.217 103.576,360 103.72,359.91C103.971,359.752 104.27,359.692 104.542,359.577C104.706,359.507 105.652,359.106 106.468,358.454C106.631,358.324 106.669,358.064 106.848,357.956C107.324,357.666 107.897,357.564 108.383,357.291C108.532,357.208 108.575,356.997 108.72,356.907C108.97,356.751 109.267,356.686 109.538,356.569C109.702,356.499 110.652,356.091 111.463,355.447C111.625,355.317 111.669,355.064 111.847,354.956C112.323,354.666 112.892,354.555 113.378,354.282C113.526,354.199 113.575,353.994 113.719,353.905C114.683,353.305 114.766,353.492 115.713,352.85C116.817,352.102 116.747,352.016 116.845,351.956C117.322,351.666 117.887,351.546 118.373,351.273C118.52,351.19 118.574,350.991 118.718,350.902C119.687,350.302 119.769,350.482 120.71,349.846C121.813,349.099 121.746,349.015 121.844,348.955C122.32,348.664 122.881,348.536 123.367,348.262C123.513,348.179 123.574,347.986 123.717,347.898C123.967,347.743 124.259,347.667 124.526,347.544C126.732,346.519 126.271,344.831 126.246,342.503C125.992,319.081 126.14,319.067 125.846,317.427C125.072,313.12 125.553,305.808 125.291,304.598C125.253,304.422 124.984,304.401 124.869,304.264C124.696,304.059 124.609,303.792 124.437,303.588C124.083,303.35 124.043,303.451 123.682,303.209C123.452,303.054 123.55,302.975 123.303,302.826C121.963,302.023 121.904,302.161 120.591,301.336C117.484,299.381 117.378,299.583 116.68,299.192C116.527,299.107 116.462,298.907 116.311,298.817C114.964,298.013 114.911,298.156 113.595,297.329C110.526,295.401 110.426,295.602 109.683,295.187C109.53,295.101 109.467,294.899 109.316,294.81C107.974,294.01 107.916,294.15 106.599,293.322C103.488,291.365 103.382,291.57 102.687,291.181C102.533,291.095 102.472,290.891 102.321,290.801C101.826,290.507 101.27,290.324 100.769,290.04C100.593,289.94 99.695,289.375 99.602,289.316C96.538,287.386 96.436,287.593 95.69,287.175C95.536,287.089 95.477,286.883 95.326,286.793C93.988,285.998 93.924,286.139 92.606,285.309C91.652,284.709 91.625,284.786 90.645,284.238C90.497,284.156 90.433,283.96 90.285,283.879C89.775,283.6 89.2,283.453 88.693,283.169C88.539,283.083 88.482,282.876 88.33,282.786C87.835,282.491 87.277,282.315 86.776,282.03C86.659,281.964 85.702,281.361 85.609,281.303C84.656,280.702 84.629,280.78 83.648,280.232C83.499,280.15 83.438,279.953 83.289,279.872C82.78,279.593 82.203,279.448 81.696,279.164C81.542,279.078 81.487,278.867 81.335,278.777C80.377,278.209 80.356,278.279 79.398,277.68C78.322,277.007 78.339,277.005 78.244,276.952C77.735,276.672 77.169,276.506 76.662,276.223C76.51,276.138 76.437,275.948 76.287,275.858C76.074,275.731 74.606,274.853 73.575,274.365C71.567,273.413 71.712,273.201 71.247,272.945C70.739,272.665 70.172,272.501 69.665,272.217C69.513,272.132 69.441,271.941 69.291,271.851C69.079,271.724 67.595,270.837 66.579,270.357C66.326,270.237 64.441,269.345 63.705,268.356C62.409,266.615 63.44,255.152 62.913,249.455C62.749,247.682 62.797,247.684 62.684,227.499C62.602,212.723 62.805,212.739 62.723,211.459C62.702,211.12 62.47,210.818 62.449,210.479L98.514,58.462Z" style="fill:rgb(0,80,126);fill-opacity:1;"/>
        <path d="M217.202,314.365C216.461,315.079 216.489,315.147 215.471,315.353C211.876,316.081 211.651,316.027 210.452,316.175C205.521,316.784 196.278,320.278 190.596,324.627C186.934,327.43 186.996,327.487 183.596,330.615C183.097,331.074 183.02,330.924 182.438,331.237C180.855,330.746 180.812,330.885 179.671,330.2C179.529,330.115 179.409,329.995 179.264,329.913C167.411,323.244 167.486,323.152 166.441,322.601C165.847,322.288 130.6,302.018 123.708,298.135C122.991,297.73 118.688,295.306 114.767,293.032C96.878,282.66 96.861,282.739 95.322,281.813C92.955,280.39 69.18,267.124 68.019,265.924C67.093,264.966 67.213,264.787 67.143,250.502C66.932,207.826 66.699,207.602 67.611,206.595C68.528,205.582 82.752,197.154 91.532,191.554C92.633,190.851 92.799,190.365 93.769,191.255C94.399,191.833 93.987,192.626 93.965,195.506C93.703,229.412 92.817,247.689 93.242,249.557C93.777,251.902 94.569,251.402 106.338,258.767C109.814,260.942 176.738,301.253 181.307,303.84C185.08,305.976 189.782,309.618 191.194,305.417C192.264,302.234 191.864,169.711 191.717,126.499C191.666,111.245 191.95,110.579 190.096,108.963C188.884,107.906 172.761,98.094 171.545,97.426C171.349,97.319 137.958,77.193 136.574,76.377C132.807,74.155 117.803,64.994 107.758,59.071C101.22,55.215 94.984,49.939 92.844,54.634C92.262,55.91 92.262,60.028 92.262,60.5C92.26,112.426 92.361,112.474 91.912,113.678C90.861,116.492 74.454,124.138 69.366,127.242C69.181,127.356 67.348,128.474 66.658,127.414C66.437,127.075 66.571,125.951 66.575,122.5C66.708,19.45 66.501,19.461 66.516,10.501C66.516,10.333 66.519,8.579 67.509,8.655C68.137,8.704 70.022,9.842 70.229,9.967C76.944,14.024 212.712,92.647 214.338,93.75C217.771,96.079 217.511,96.839 217.513,102.5C217.521,119.3 217.601,291.371 217.475,312.5C217.468,313.752 217.298,313.715 217.202,314.365Z" style="fill:rgb(148,192,30);fill-opacity:1;"/>
        <path d="M217.202,314.365C217.767,314.545 217.597,315.118 219.504,315.096C221.511,315.074 221.483,314.506 221.959,314.364C222.65,315.019 222.631,315.034 222.705,315.071C222.953,315.196 227.281,315.94 228.554,316.121C242.668,318.133 257.816,328.602 264.718,343.403C265.826,345.78 267.614,348.815 269.192,357.554C271.057,367.881 268.615,374.791 268.188,377.445C267.663,380.716 267.223,380.573 266.346,383.452C265.066,387.656 260.145,396.942 256.181,402.267C251.085,409.112 248.883,411.839 242.321,418.315C234.012,426.515 231.844,427.971 231.386,428.363C227.744,431.483 225.982,432.623 224.631,433.677C220.498,436.898 219.703,437.386 216.752,435.157C215.486,434.201 206.139,427.143 201.435,422.568C195.855,417.142 195.755,417.268 190.558,411.448C181.261,401.037 174.739,389.121 172.393,381.537C169.606,372.53 170.095,369.637 170.021,368.531C169.8,365.245 169.613,365.25 170.159,358.463C170.72,351.493 174.762,342.546 176.715,339.639C176.876,339.398 178.543,336.916 178.692,336.6C178.857,336.248 178.908,335.85 179.074,335.498C179.941,334.618 179.97,334.673 180.801,333.746C182.2,332.187 182.025,331.945 182.438,331.237C183.02,330.924 183.097,331.074 183.596,330.615C186.996,327.487 186.934,327.43 190.596,324.627C196.278,320.278 205.521,316.784 210.452,316.175C211.651,316.027 211.876,316.081 215.471,315.353C216.489,315.147 216.461,315.079 217.202,314.365Z" style="fill:rgb(30,30,30);fill-opacity:1;"/>
        <path d="M264.937,371.548C264.735,373.35 263.322,391.771 239.33,415.326C233.086,421.456 231.7,422.62 225.602,427.627C225.049,428.081 221.095,431.08 220.437,431.343C219.252,431.816 217.964,430.822 214.205,427.884C201.643,418.066 193.345,408.211 191.739,406.305C186.747,400.376 183.254,394.521 182.607,393.437C182.111,392.606 178.622,386.757 177.321,382.557C176.527,379.994 176.066,379.975 175.204,375.567C174.6,372.473 174.195,372.553 174.081,369.522C173.748,360.661 173.795,360.623 175.707,352.55C176.125,350.783 179.542,339.025 190.74,329.794C192.84,328.063 199.123,323.561 206.489,321.463C210.184,320.41 210.697,320.063 218.505,319.607C219.458,319.551 226.481,319.689 229.497,320.509C235.767,322.214 246.243,325.007 255.87,337.211C263.787,347.247 264.975,357.029 265.538,363.497C265.745,365.88 265.464,366.494 264.937,371.548Z" style="fill:rgb(148,192,30);"/>
        <path d="M98.644,189.554C98.595,189.281 98.985,189.048 98.935,188.775C98.894,188.544 98.07,187.717 98.111,185.504C98.148,183.464 99.019,183.891 106.334,179.224C106.671,179.009 124.14,168.432 125.588,167.679C127.899,166.476 130.371,166.87 131.089,168.675C131.846,170.579 131.726,170.646 131.726,204.5C131.725,227.027 131.579,227.144 132.42,228.559C133.547,230.456 148.876,238.215 154.547,241.409C155.848,242.142 155.789,242.514 156.495,242.275C157.603,241.9 157.51,241.667 157.511,240.501C157.54,136.529 157.371,136.54 157.431,127.5C157.455,123.903 157.564,123.881 157.37,123.56C156.757,122.54 156.495,122.739 155.405,123.243C154.591,123.618 154.683,123.762 145.716,128.873C143.101,130.364 134.946,135.279 119.752,143.936C116.264,145.923 94.422,158.729 92.222,160.019C87.03,163.063 86.975,162.931 81.778,165.979C79.458,167.34 61.599,177.816 52.717,182.875C49.773,184.551 42.351,189.049 26.752,197.936C18.546,202.61 18.699,202.845 10.474,207.458C5.862,210.044 6.476,212.051 6.475,217.5C6.468,284.057 6.59,440.045 6.435,446.501C6.431,446.658 6.189,448.524 6.862,449.069C7.822,449.846 7.983,449.099 24.615,439.702C29.653,436.855 99.517,396.701 111.26,390.08C113.718,388.694 118.759,385.603 139.241,374.046C140.243,373.481 146.503,369.949 151.693,366.839C155.132,364.779 156.722,364.843 156.792,361.506C156.987,352.303 157.044,330.216 157.051,327.496C157.052,327.249 157.059,324.722 157.046,324.415C157.007,323.509 156.856,323.313 157.701,322.943C158.646,322.528 158.639,322.904 159.532,323.442C160.032,323.743 161.257,324.551 161.405,324.649C161.634,328.632 161.793,348.761 161.153,352.429C160.462,356.399 161.743,365.286 160.093,367.129C159.939,367.301 159.723,367.409 159.524,367.528C159.283,367.672 158.998,367.745 158.774,367.916C158.622,368.032 158.581,368.263 158.422,368.37C158.18,368.535 157.859,368.55 157.611,368.706C157.469,368.796 157.426,369.001 157.282,369.089C156.517,369.559 156.416,369.305 155.641,369.763C155.501,369.846 155.435,370.029 155.291,370.106C154.295,370.64 154.247,370.524 153.294,371.154C153.057,371.312 152.769,371.39 152.545,371.565C152.383,371.691 152.343,371.955 152.158,372.043C152.036,372.101 151.892,371.879 151.769,371.934C151.6,372.01 151.579,372.269 151.425,372.373C151.182,372.536 150.862,372.556 150.614,372.711C150.472,372.8 150.426,373.002 150.283,373.09C149.517,373.559 149.418,373.311 148.644,373.768C148.503,373.851 148.435,374.031 148.291,374.108C147.294,374.643 147.248,374.528 146.296,375.157C145.567,375.639 145.472,375.439 144.774,375.941C144.623,376.049 144.581,376.273 144.427,376.376C144.183,376.539 143.865,376.562 143.617,376.717C143.475,376.806 143.431,377.013 143.283,377.092C142.762,377.371 142.173,377.504 141.646,377.774C141.502,377.848 141.436,378.033 141.293,378.11C140.294,378.646 140.247,378.533 139.298,379.16C138.568,379.641 138.476,379.445 137.777,379.946C137.627,380.054 137.582,380.275 137.428,380.378C137.185,380.541 136.868,380.567 136.62,380.722C136.478,380.81 136.431,381.014 136.284,381.093C135.763,381.372 135.175,381.509 134.649,381.778C134.504,381.852 134.437,382.035 134.294,382.112C133.284,382.654 133.245,382.538 132.299,383.163C131.574,383.642 131.484,383.451 130.781,383.953C130.631,384.06 130.583,384.279 130.43,384.381C130.186,384.544 129.871,384.572 129.622,384.727C129.481,384.814 129.431,385.015 129.285,385.094C128.764,385.373 128.177,385.513 127.651,385.782C127.507,385.856 127.438,386.037 127.295,386.114C126.342,386.625 126.296,386.509 125.301,387.165C124.574,387.644 124.485,387.459 123.784,387.958C123.634,388.065 123.584,388.281 123.431,388.383C123.187,388.546 122.873,388.576 122.625,388.731C122.484,388.818 122.431,389.017 122.285,389.095C121.765,389.374 121.18,389.518 120.654,389.788C120.51,389.862 120.439,390.04 120.296,390.116C119.42,390.586 119.377,390.46 118.303,391.168C117.573,391.649 117.489,391.467 116.788,391.964C116.638,392.071 116.586,392.285 116.433,392.386C116.189,392.548 115.876,392.581 115.627,392.735C115.486,392.823 115.432,393.018 115.286,393.097C114.765,393.376 114.182,393.522 113.657,393.792C113.513,393.866 113.439,394.042 113.297,394.118C112.473,394.56 112.423,394.434 111.304,395.17C110.576,395.65 110.492,395.474 109.792,395.97C109.642,396.076 109.588,396.288 109.435,396.389C109.191,396.551 108.879,396.587 108.63,396.741C108.49,396.828 108.432,397.02 108.287,397.098C107.286,397.636 107.235,397.515 106.288,398.145C105.561,398.628 105.451,398.4 104.754,398.909C104.602,399.021 104.575,399.258 104.419,399.364C104.177,399.529 103.85,399.533 103.603,399.691C103.459,399.782 103.44,400.027 103.281,400.086C103.122,400.146 102.938,399.936 102.78,399.997C102.616,400.06 102.597,400.311 102.45,400.407C102.203,400.569 101.886,400.596 101.633,400.747C101.491,400.832 101.433,401.022 101.288,401.1C100.292,401.634 100.242,401.514 99.29,402.147C99.052,402.304 98.76,402.375 98.536,402.552C98.374,402.681 98.343,402.956 98.155,403.043C98.029,403.102 97.885,402.859 97.758,402.915C97.586,402.991 97.576,403.261 97.421,403.366C97.178,403.531 96.853,403.539 96.606,403.696C96.463,403.787 96.426,403.998 96.282,404.087C95.518,404.56 95.411,404.291 94.635,404.752C94.494,404.836 94.433,405.024 94.289,405.101C93.289,405.638 93.246,405.515 92.291,406.149C92.053,406.307 91.763,406.38 91.539,406.556C91.377,406.684 91.343,406.955 91.156,407.043C91.031,407.101 90.887,406.865 90.761,406.921C90.59,406.997 90.577,407.263 90.422,407.368C90.179,407.532 89.856,407.544 89.608,407.7C89.465,407.791 89.425,407.999 89.282,408.088C88.517,408.56 88.413,408.298 87.638,408.757C87.497,408.841 87.434,409.026 87.29,409.103C86.292,409.639 86.25,409.517 85.293,410.152C85.055,410.309 84.766,410.385 84.542,410.561C84.38,410.688 84.343,410.955 84.157,411.043C84.034,411.101 83.889,410.872 83.765,410.927C83.595,411.003 83.578,411.266 83.423,411.37C83.18,411.534 82.858,411.549 82.611,411.705C82.468,411.795 82.426,412.001 82.282,412.089C81.517,412.56 81.415,412.304 80.64,412.762C80.5,412.845 80.434,413.028 80.291,413.105C79.292,413.64 79.248,413.522 78.294,414.153C78.056,414.311 77.768,414.388 77.544,414.564C77.382,414.69 77.343,414.955 77.157,415.043C77.035,415.101 76.891,414.877 76.768,414.932C76.598,415.008 76.579,415.268 76.424,415.372C76.181,415.536 75.861,415.554 75.613,415.71C75.471,415.799 75.426,416.002 75.283,416.09C74.517,416.56 74.417,416.309 73.643,416.766C73.502,416.849 73.435,417.03 73.291,417.107C72.295,417.642 72.251,417.525 71.296,418.156C71.058,418.313 70.771,418.393 70.547,418.568C70.385,418.694 70.343,418.955 70.158,419.043C70.038,419.101 69.894,418.884 69.772,418.939C69.603,419.015 69.58,419.272 69.426,419.375C69.183,419.538 68.864,419.56 68.616,419.715C68.474,419.804 68.426,420.004 68.283,420.091C67.517,420.559 67.42,420.315 66.645,420.771C66.505,420.853 66.436,421.032 66.292,421.109C65.296,421.644 65.25,421.529 64.297,422.159C63.571,422.638 63.478,422.44 62.775,422.944C62.625,423.052 62.581,423.274 62.427,423.377C62.184,423.54 61.867,423.564 61.618,423.719C61.477,423.808 61.431,424.013 61.284,424.092C60.763,424.371 60.174,424.506 59.648,424.776C59.503,424.85 59.437,425.034 59.293,425.111C58.289,425.649 58.241,425.539 57.299,426.161C56.574,426.64 56.482,426.448 55.78,426.95C55.629,427.058 55.583,427.277 55.429,427.38C55.186,427.543 54.87,427.57 54.621,427.724C54.48,427.812 54.431,428.015 54.284,428.093C53.764,428.373 53.176,428.512 52.651,428.781C52.506,428.855 52.437,429.037 52.294,429.113C51.319,429.636 51.276,429.521 50.3,430.164C49.573,430.644 49.484,430.455 48.783,430.955C48.633,431.063 48.584,431.28 48.43,431.383C48.187,431.545 47.872,431.575 47.624,431.729C47.483,431.817 47.431,432.016 47.285,432.095C46.764,432.374 46.178,432.516 45.653,432.785C45.509,432.859 45.438,433.039 45.295,433.115C44.386,433.603 44.335,433.486 43.302,434.167C42.575,434.646 42.488,434.463 41.787,434.962C41.637,435.068 41.586,435.283 41.432,435.385C41.188,435.548 40.875,435.58 40.626,435.734C40.485,435.821 40.432,436.018 40.285,436.096C39.765,436.375 39.181,436.52 38.655,436.789C38.511,436.863 38.439,437.041 38.296,437.117C37.45,437.572 37.403,437.445 36.304,438.17C35.575,438.65 35.49,438.472 34.791,438.968C34.641,439.074 34.587,439.287 34.434,439.388C34.19,439.55 33.878,439.585 33.629,439.739C33.488,439.826 33.432,440.019 33.286,440.098C32.766,440.376 32.183,440.525 31.658,440.795C31.514,440.869 31.44,441.043 31.297,441.12C30.5,441.547 30.447,441.42 29.305,442.172C27.97,443.051 27.905,442.893 27.793,442.972C27.644,443.078 27.588,443.289 27.435,443.39C27.191,443.552 26.88,443.589 26.631,443.743C26.491,443.829 26.432,444.021 26.287,444.099C25.28,444.64 25.23,444.521 24.289,445.146C24.051,445.304 23.759,445.374 23.535,445.551C23.372,445.679 23.343,445.956 23.155,446.043C23.028,446.102 22.884,445.856 22.756,445.913C22.584,445.988 22.576,446.26 22.42,446.365C22.177,446.53 21.852,446.536 21.604,446.693C21.461,446.784 21.426,446.997 21.281,447.087C20.523,447.557 20.412,447.287 19.634,447.75C19.493,447.834 19.433,448.023 19.288,448.101C18.285,448.639 18.235,448.521 17.29,449.148C17.053,449.305 16.761,449.377 16.537,449.554C16.375,449.682 16.343,449.955 16.156,450.043C16.03,450.102 15.886,449.862 15.759,449.918C15.588,449.993 15.576,450.262 15.421,450.367C15.178,450.531 14.854,450.541 14.607,450.698C14.464,450.788 14.425,450.998 14.282,451.087C13.518,451.559 13.413,451.293 12.636,451.754C12.495,451.838 12.434,452.025 12.289,452.102C11.769,452.381 11.19,452.539 10.665,452.809C10.247,453.025 10.32,453.149 7.5,454.501C7.343,454.576 5.823,455.305 5.462,455.287C5.076,455.267 4.724,455.036 4.339,454.991C4.13,454.966 3.912,455.152 3.713,455.082C3.545,455.023 3.526,454.772 3.39,454.656C3.215,454.508 2.246,454.47 2.145,451.52C1.876,443.683 2.139,443.684 2.139,353.5C2.138,211.119 2.045,211.096 2.395,209.477C2.493,209.021 2.902,207.928 2.956,207.851C2.963,207.841 3.798,206.927 3.871,206.847C5.537,205.023 5.69,205.231 7.712,203.842C9.358,202.712 9.407,202.69 9.57,202.617C9.836,202.498 10.126,202.423 10.374,202.269C10.515,202.181 10.569,201.983 10.715,201.904C11.717,201.362 11.77,201.487 12.713,200.856C12.95,200.698 13.244,200.629 13.467,200.452C13.63,200.323 13.678,200.08 13.846,199.957C14.534,199.451 14.67,199.763 15.393,199.304C15.537,199.213 15.575,199.002 15.719,198.912C16.476,198.441 16.585,198.704 17.361,198.242C17.502,198.158 17.566,197.973 17.711,197.895C18.704,197.359 18.746,197.482 19.706,196.845C19.943,196.687 20.229,196.608 20.454,196.433C20.615,196.307 20.676,196.076 20.843,195.956C21.537,195.455 21.655,195.736 22.381,195.281C22.523,195.192 22.574,194.995 22.717,194.907C23.483,194.438 23.577,194.673 24.348,194.219C24.489,194.136 24.563,193.963 24.706,193.886C25.556,193.427 25.604,193.556 26.698,192.831C26.934,192.674 27.214,192.585 27.439,192.411C27.991,191.986 27.912,191.907 28.565,191.61C28.831,191.489 29.119,191.41 29.367,191.257C29.508,191.169 29.568,190.979 29.714,190.9C30.716,190.358 30.761,190.483 31.71,189.851C31.947,189.693 32.236,189.618 32.46,189.442C32.622,189.314 32.677,189.078 32.844,188.957C33.536,188.454 33.664,188.749 34.387,188.293C34.53,188.203 34.575,187.999 34.718,187.91C35.476,187.443 35.578,187.689 36.354,187.231C36.495,187.147 36.565,186.968 36.709,186.891C37.706,186.352 37.746,186.472 38.702,185.838C38.939,185.681 39.222,185.596 39.446,185.422C39.999,184.993 39.928,184.904 40.57,184.617C40.836,184.498 41.126,184.423 41.374,184.269C41.515,184.181 41.569,183.983 41.715,183.904C42.717,183.362 42.77,183.487 43.713,182.856C43.95,182.698 44.244,182.629 44.467,182.452C44.63,182.323 44.678,182.08 44.846,181.957C45.534,181.451 45.67,181.763 46.393,181.304C46.537,181.213 46.575,181.002 46.719,180.912C47.476,180.441 47.585,180.704 48.361,180.242C48.502,180.158 48.566,179.973 48.711,179.895C49.704,179.359 49.746,179.482 50.706,178.845C50.943,178.687 51.229,178.608 51.454,178.433C51.615,178.307 51.676,178.076 51.843,177.956C52.537,177.455 52.655,177.736 53.381,177.281C53.523,177.192 53.574,176.995 53.717,176.907C54.483,176.438 54.577,176.673 55.348,176.219C55.489,176.136 55.563,175.963 55.706,175.886C56.57,175.419 56.616,175.548 57.698,174.832C57.935,174.675 58.215,174.586 58.44,174.412C58.993,173.986 58.925,173.902 59.566,173.61C59.831,173.489 60.119,173.411 60.367,173.257C60.508,173.17 60.568,172.979 60.714,172.9C61.716,172.358 61.761,172.483 62.71,171.851C62.947,171.693 63.236,171.618 63.46,171.442C63.622,171.314 63.677,171.078 63.844,170.957C64.536,170.454 64.664,170.749 65.387,170.293C65.53,170.203 65.575,169.999 65.718,169.91C66.476,169.443 66.578,169.689 67.354,169.231C67.495,169.147 67.565,168.968 67.709,168.891C68.706,168.352 68.746,168.472 69.702,167.838C69.939,167.681 70.222,167.596 70.446,167.422C70.999,166.993 70.928,166.904 71.57,166.617C71.836,166.498 72.126,166.423 72.374,166.269C72.515,166.181 72.569,165.983 72.715,165.904C73.717,165.362 73.77,165.487 74.713,164.856C74.95,164.698 75.244,164.629 75.467,164.452C75.63,164.323 75.678,164.08 75.846,163.957C76.534,163.451 76.67,163.764 77.394,163.305C77.537,163.214 77.575,163.002 77.719,162.912C78.479,162.44 78.587,162.704 79.361,162.243C79.502,162.159 79.566,161.974 79.711,161.895C80.714,161.353 80.762,161.471 81.706,160.845C81.943,160.687 82.229,160.608 82.454,160.433C82.615,160.307 82.676,160.076 82.843,159.956C83.537,159.455 83.655,159.736 84.381,159.281C84.523,159.192 84.574,158.995 84.717,158.907C84.99,158.74 85.057,158.881 88.312,157.159C88.78,156.911 89.53,156.082 90.566,155.61C90.831,155.489 91.119,155.411 91.367,155.257C91.508,155.17 91.568,154.979 91.714,154.9C92.716,154.358 92.761,154.483 93.71,153.851C93.947,153.693 94.236,153.618 94.46,153.442C94.622,153.314 94.677,153.078 94.844,152.957C95.536,152.454 95.664,152.749 96.387,152.293C96.53,152.203 96.575,151.999 96.718,151.91C96.99,151.742 97.061,151.89 100.318,150.17C100.779,149.927 101.533,149.081 102.57,148.617C102.836,148.498 103.126,148.423 103.374,148.269C103.515,148.181 103.569,147.983 103.715,147.904C104.717,147.362 104.77,147.487 105.713,146.856C105.95,146.698 106.244,146.629 106.467,146.452C106.63,146.323 106.678,146.08 106.846,145.957C107.534,145.451 107.67,145.764 108.394,145.305C108.537,145.214 108.575,145.002 108.719,144.912C109.479,144.44 109.587,144.704 110.362,144.244C110.503,144.16 110.566,143.974 110.711,143.896C111.705,143.359 111.748,143.482 112.706,142.845C112.943,142.688 113.23,142.608 113.454,142.433C113.615,142.307 113.676,142.076 113.843,141.956C114.539,141.453 114.661,141.732 115.381,141.281C115.523,141.192 115.574,140.995 115.717,140.907C116.483,140.438 116.577,140.673 117.348,140.219C117.489,140.136 117.563,139.963 117.706,139.886C118.57,139.419 118.616,139.548 119.698,138.832C120.64,138.208 120.536,138.079 121.566,137.61C121.831,137.489 122.119,137.411 122.367,137.257C122.508,137.17 122.568,136.979 122.714,136.9C123.716,136.358 123.761,136.483 124.71,135.851C124.947,135.693 125.236,135.618 125.46,135.442C125.622,135.314 125.677,135.078 125.844,134.957C126.536,134.454 126.665,134.749 127.387,134.293C127.53,134.203 127.575,133.999 127.718,133.91C128.477,133.442 128.58,133.69 129.355,133.231C129.496,133.148 129.565,132.969 129.709,132.891C130.712,132.349 130.751,132.468 131.702,131.838C131.939,131.681 132.222,131.596 132.446,131.422C132.999,130.994 132.928,130.905 133.57,130.617C133.837,130.498 134.126,130.424 134.374,130.269C134.516,130.181 134.569,129.983 134.716,129.904C135.716,129.363 135.768,129.488 136.713,128.856C136.95,128.698 137.244,128.629 137.467,128.452C137.63,128.323 137.678,128.08 137.846,127.957C138.534,127.451 138.67,127.764 139.394,127.305C139.537,127.214 139.575,127.002 139.719,126.912C140.479,126.44 140.587,126.704 141.361,126.243C141.503,126.159 141.566,125.974 141.711,125.895C142.714,125.353 142.762,125.471 143.706,124.845C143.943,124.687 144.229,124.608 144.454,124.433C144.615,124.307 144.676,124.076 144.843,123.956C145.537,123.455 145.655,123.736 146.381,123.281C146.523,123.192 146.574,122.995 146.717,122.907C147.483,122.438 147.577,122.673 148.348,122.219C148.489,122.136 148.563,121.963 148.706,121.886C149.57,121.419 149.616,121.548 150.698,120.832C151.64,120.208 151.536,120.079 152.566,119.61C154.728,118.626 157.408,116.23 160.45,117.581C162.083,118.306 161.844,118.888 161.838,141.5C161.848,175.166 161.858,208.833 161.868,242.499C161.868,242.71 162.313,249.217 156.531,247.418C155.808,247.193 153.922,246.228 153.701,246.114C153.559,246.042 153.489,245.867 153.347,245.796C152.818,245.527 152.234,245.375 151.707,245.102C151.565,245.028 151.507,244.837 151.363,244.764C150.833,244.496 150.239,244.366 149.712,244.092C149.567,244.017 149.524,243.808 149.379,243.734C148.848,243.467 148.244,243.361 147.716,243.086C147.568,243.009 147.536,242.79 147.395,242.701C147.145,242.545 146.821,242.533 146.575,242.371C146.422,242.271 146.402,242.016 146.236,241.942C146.111,241.886 145.962,242.1 145.838,242.042C145.697,241.977 145.929,241.686 144.317,240.848C142.531,239.92 142.487,240.037 140.703,239.11C140.562,239.036 140.495,238.857 140.353,238.785C139.823,238.516 139.236,238.372 138.709,238.098C138.566,238.024 138.513,237.827 138.369,237.754C137.839,237.486 137.241,237.365 136.715,237.09C136.568,237.013 136.525,236.805 136.384,236.717C136.136,236.562 135.817,236.54 135.575,236.376C135.418,236.269 135.377,236.041 135.224,235.929C134.538,235.423 134.432,235.638 133.719,235.145C133.574,235.045 133.486,234.873 133.337,234.778C133.094,234.624 132.794,234.571 132.557,234.408C132.401,234.3 132.334,234.093 132.18,233.981C131.787,233.693 128.02,232.225 127.347,228.527C127.164,227.523 127.216,227.512 127.216,178.5C127.216,174.123 127.282,173.692 127.232,173.577C127.152,173.39 126.862,173.395 126.715,173.254C126.211,172.774 126.24,172.501 125.585,172.746C125.172,172.9 124.842,173.226 124.513,173.52C124.361,173.657 124.32,173.896 124.158,174.022C123.481,174.547 123.34,174.248 122.616,174.708C122.472,174.799 122.425,175.002 122.28,175.092C121.527,175.562 121.424,175.321 120.661,175.785C120.513,175.875 120.427,176.046 120.284,176.144C120.049,176.303 119.757,176.373 119.535,176.55C119.372,176.68 119.331,176.936 119.153,177.044C118.676,177.333 118.105,177.439 117.618,177.712C117.47,177.795 117.425,178.003 117.281,178.093C116.521,178.566 116.42,178.328 115.663,178.788C115.515,178.878 115.428,179.048 115.285,179.145C115.05,179.305 114.759,179.376 114.537,179.553C114.375,179.682 114.331,179.936 114.153,180.044C113.676,180.333 113.107,180.442 112.62,180.715C112.472,180.798 112.425,181.005 112.281,181.094C111.305,181.701 111.222,181.513 110.286,182.147C110.051,182.306 109.761,182.379 109.539,182.555C109.376,182.684 109.331,182.936 109.154,183.044C108.677,183.334 108.108,183.446 107.622,183.719C107.474,183.802 107.425,184.006 107.282,184.095C106.316,184.694 106.233,184.509 105.287,185.149C105.052,185.308 104.764,185.383 104.542,185.559C104.379,185.687 104.331,185.937 104.155,186.044C103.677,186.334 103.11,186.449 102.624,186.723C102.477,186.805 102.426,187.007 102.282,187.096C101.328,187.689 101.241,187.51 100.307,188.154C99.407,188.774 99.397,188.741 98.644,189.554Z" style="fill:rgb(148,192,30);fill-opacity:0.99;"/>
        <path d="M62.449,210.479C62.143,210.76 62.069,210.631 61.754,210.921C61.544,211.114 61.688,211.209 61.46,211.389C61.222,211.576 60.902,211.631 60.647,211.795C58.935,212.897 58.943,212.867 58.802,212.97C58.651,213.08 58.591,213.291 58.437,213.395C58.196,213.558 57.89,213.603 57.643,213.756C57.501,213.844 57.433,214.027 57.287,214.108C56.47,214.558 56.412,214.419 55.299,215.169C54.59,215.646 54.506,215.474 53.806,215.976C53.654,216.085 53.593,216.294 53.439,216.398C53.198,216.561 52.892,216.607 52.645,216.76C52.503,216.847 52.434,217.029 52.288,217.109C51.505,217.54 51.443,217.401 50.3,218.17C49.591,218.648 49.508,218.478 48.809,218.98C48.657,219.088 48.594,219.296 48.44,219.401C48.2,219.563 47.896,219.609 47.651,219.764C47.503,219.858 47.423,220.036 47.278,220.136C46.564,220.626 46.445,220.385 45.761,220.899C45.606,221.015 45.576,221.256 45.418,221.367C45.181,221.534 44.861,221.549 44.616,221.705C44.472,221.797 44.424,222.002 44.279,222.094C43.314,222.705 43.227,222.508 42.287,223.154C41.191,223.909 41.253,223.986 41.155,224.047C40.684,224.34 40.129,224.477 39.649,224.754C39.495,224.844 39.419,225.033 39.274,225.137C39.045,225.3 38.752,225.366 38.538,225.548C38.359,225.702 38.29,225.955 38.123,226.121C37.967,226.276 37.502,226.371 37.148,227.352C36.434,229.334 36.806,229.383 36.803,231.501C36.821,286.499 36.84,341.496 36.858,396.494C36.855,397.707 36.377,397.879 37.245,398.731C38.598,400.059 39.251,398.806 39.551,398.601C39.795,398.434 40.108,398.393 40.361,398.239C40.5,398.154 40.566,397.973 40.709,397.895C41.685,397.367 41.734,397.492 42.705,396.84C43.811,396.097 43.743,396.014 43.842,395.954C44.319,395.664 44.878,395.53 45.364,395.256C45.51,395.174 45.568,394.978 45.715,394.897C46.713,394.348 46.762,394.475 47.705,393.839C48.809,393.096 48.743,393.014 48.842,392.954C49.318,392.663 49.877,392.529 50.363,392.255C50.509,392.172 50.568,391.977 50.715,391.897C51.696,391.356 51.745,391.485 52.705,390.839C53.809,390.096 53.743,390.013 53.841,389.953C54.318,389.663 54.877,389.528 55.363,389.253C55.508,389.171 55.568,388.977 55.714,388.896C56.684,388.363 56.734,388.491 57.705,387.838C58.808,387.095 58.742,387.013 58.841,386.953C59.318,386.663 59.876,386.527 60.362,386.253C60.508,386.171 60.568,385.976 60.714,385.896C61.656,385.377 61.711,385.506 62.704,384.837C63.807,384.094 63.742,384.013 63.841,383.953C64.317,383.662 64.875,383.525 65.361,383.25C65.506,383.168 65.567,382.976 65.714,382.895C66.65,382.38 66.705,382.509 67.704,381.837C68.808,381.094 68.742,381.013 68.841,380.953C69.317,380.662 69.875,380.525 70.361,380.25C70.506,380.168 70.567,379.975 70.714,379.895C71.636,379.387 71.692,379.516 72.703,378.836C73.807,378.094 73.742,378.013 73.84,377.953C74.317,377.662 74.874,377.523 75.36,377.249C75.505,377.167 75.567,376.975 75.713,376.894C76.615,376.398 76.674,376.528 77.703,375.835C78.806,375.093 78.742,375.012 78.84,374.953C79.317,374.662 79.873,374.522 80.359,374.247C80.504,374.165 80.567,373.974 80.713,373.894C81.606,373.402 81.665,373.532 82.702,372.834C83.805,372.093 83.741,372.012 83.84,371.952C84.317,371.662 84.873,371.521 85.359,371.247C85.504,371.165 85.567,370.974 85.713,370.894C86.577,370.418 86.629,370.557 87.702,369.834C88.804,369.092 88.741,369.012 88.839,368.952C89.316,368.661 89.872,368.519 90.358,368.244C90.503,368.162 90.567,367.973 90.713,367.893C91.572,367.42 91.623,367.559 92.702,366.833C93.805,366.092 93.741,366.012 93.839,365.952C94.316,365.661 94.87,365.517 95.356,365.242C95.501,365.16 95.566,364.972 95.713,364.891C96.477,364.468 96.542,364.609 97.7,363.829C98.8,363.087 98.739,363.01 98.837,362.95C99.312,362.659 99.864,362.51 100.346,362.232C100.498,362.144 100.576,361.961 100.721,361.862C100.955,361.702 101.251,361.638 101.472,361.46C101.636,361.329 101.669,361.064 101.848,360.956C102.326,360.667 102.902,360.573 103.389,360.3C103.538,360.217 103.576,360 103.72,359.91C103.971,359.752 104.27,359.692 104.542,359.577C104.706,359.507 105.652,359.106 106.468,358.454C106.631,358.324 106.669,358.064 106.848,357.956C107.324,357.666 107.897,357.564 108.383,357.291C108.532,357.208 108.575,356.997 108.72,356.907C108.97,356.751 109.267,356.686 109.538,356.569C109.702,356.499 110.652,356.091 111.463,355.447C111.625,355.317 111.669,355.064 111.847,354.956C112.323,354.666 112.892,354.555 113.378,354.282C113.526,354.199 113.575,353.994 113.719,353.905C114.683,353.305 114.766,353.492 115.713,352.85C116.817,352.102 116.747,352.016 116.845,351.956C117.322,351.666 117.887,351.546 118.373,351.273C118.52,351.19 118.574,350.991 118.718,350.902C119.687,350.302 119.769,350.482 120.71,349.846C121.813,349.099 121.746,349.015 121.844,348.955C122.32,348.664 122.881,348.536 123.367,348.262C123.513,348.179 123.574,347.986 123.717,347.898C123.967,347.743 124.259,347.667 124.526,347.544C126.732,346.519 126.271,344.831 126.246,342.503C125.992,319.081 126.14,319.067 125.846,317.427C125.072,313.12 125.553,305.808 125.291,304.598C125.253,304.422 124.984,304.401 124.869,304.264C124.696,304.059 124.609,303.792 124.437,303.588C127.891,305.422 129.823,305.689 130.016,308.515C130.025,308.648 130.688,337.936 130.746,340.494C130.883,346.563 131.264,348.551 129.168,350.034C127.817,350.99 116.515,357.694 115.409,358.35C114.898,358.653 91.128,373.055 90.454,373.424C90.277,373.52 53.76,395.474 53.554,395.588C50.7,397.159 37.762,405.507 35.509,405.64C33.199,405.776 32.818,403.716 32.767,403.44C31.567,396.952 32.303,227.169 32.36,226.492C32.639,223.218 35.134,222.416 38.358,220.273C39.799,219.317 40.412,218.909 56.789,208.981C61.079,206.38 61.046,206.3 61.478,206.266C61.619,206.254 62.61,206.175 62.821,207.412C63,208.456 62.817,208.439 62.449,210.479Z" style="fill:rgb(148,192,30);fill-opacity:0.99;"/>
        <path d="M201.049,365.507C201.808,351.363 212.683,348.196 214.51,347.525C218.657,346.004 225.822,346.49 231.266,350.799C241.775,359.118 240.252,376.348 227.387,382.239C216.821,387.078 202.239,381.28 201.049,365.507Z" style="fill:rgb(30,30,30);"/>
        <path d="M232.9,365.504C232.814,367.002 233.019,370.171 229.874,373.816C219.967,385.294 202.099,374.573 207.383,360.457C210.494,352.146 222.222,348.485 229.571,356.435C229.769,356.649 230.856,357.825 231.629,359.43C233.099,362.482 232.886,365.152 232.9,365.504Z" style="fill:rgb(0,79,126);"/>
        <path d="M98.514,58.462C98.204,58.607 97.798,58.312 97.488,58.456C97.25,58.567 97.254,58.931 97.083,59.129C96.944,59.29 96.713,59.353 96.573,59.513C96.724,59.254 96.569,58.884 96.72,58.624C97.096,57.978 97.405,57.95 97.487,57.943C98.104,57.887 97.895,58.518 98.514,58.462Z" style="fill:rgb(0,60,96);fill-opacity:0.22;"/>
    </g>
</svg>
